HIERARCHY
ROOT pelvis
{
  OFFSET 0 100 0
  CHANNELS 6 Xposition Yposition Zposition Zrotation Xrotation Yrotation
  JOINT pelvis_right_femur
  {
    OFFSET -10.78128 -3.44521 -0.5502486
    CHANNELS 3 Zrotation Xrotation Yrotation
    JOINT right_femur_tibia
    {
      OFFSET -0.8047443 -44.0398 -0.1307829
      CHANNELS 3 Zrotation Xrotation Yrotation
      JOINT right_tibia_foot
      {
        OFFSET 3.006224 -47.83518 -5
        CHANNELS 3 Zrotation Xrotation Yrotation
        End Site
        {
          OFFSET 0 -5 15
        }
      }
    }
  }
  JOINT pelvis_left_femur
  {
    OFFSET 10.78128 -3.44521 -0.5502486
    CHANNELS 3 Zrotation Xrotation Yrotation
    JOINT left_femur_tibia
    {
      OFFSET 0.8047443 -44.0398 -0.1307829
      CHANNELS 3 Zrotation Xrotation Yrotation
      JOINT left_tibia_foot
      {
        OFFSET -4.370144 -48.10324 -4.275266
        CHANNELS 3 Zrotation Xrotation Yrotation
        End Site
        {
          OFFSET 0 -5 15
        }
      }
    }
  }
  JOINT pelvis_spine1
  {
    OFFSET 0 6.468898 -3.129235
    CHANNELS 3 Zrotation Xrotation Yrotation
    JOINT spine1
    {
      OFFSET 0 23.15396 4.99043
      CHANNELS 3 Zrotation Xrotation Yrotation
      JOINT spine2
      {
        OFFSET 0 20.79997 -5.064912
        CHANNELS 3 Zrotation Xrotation Yrotation
        JOINT neck
        {
          OFFSET 0 14.38658 9.616178
          CHANNELS 3 Zrotation Xrotation Yrotation
          End Site
          {
            OFFSET 0 20 0
          }
        }
      }
      JOINT right_manubrium
      {
        OFFSET -5.722621 16.35077 3.967754
        CHANNELS 3 Zrotation Xrotation Yrotation
        JOINT right_clavicle
        {
          OFFSET -13.16364 1.694482 -4.693211
          CHANNELS 3 Zrotation Xrotation Yrotation
          JOINT right_humerus
          {
            OFFSET -28.5034 -0.3100689 -2.792744
            CHANNELS 3 Zrotation Xrotation Yrotation
            JOINT right_radius
            {
              OFFSET -25.15693 0.02248979 -1.271978
              CHANNELS 3 Zrotation Xrotation Yrotation
              End Site
              {
                OFFSET -15 0 0
              }
            }
          }
        }
      }
      JOINT left_manubrium
      {
        OFFSET 5.722621 16.35077 3.967754
        CHANNELS 3 Zrotation Xrotation Yrotation
        JOINT left_clavicle
        {
          OFFSET 13.16364 1.694482 -4.693211
          CHANNELS 3 Zrotation Xrotation Yrotation
          JOINT left_humerus
          {
            OFFSET 29.39168 -1.063119 -2.237045
            CHANNELS 3 Zrotation Xrotation Yrotation
            JOINT left_radius
            {
              OFFSET 24.59957 -0.9528479 0.9047498
              CHANNELS 3 Zrotation Xrotation Yrotation
              End Site
              {
                OFFSET 15 -0 -0
              }
            }
          }
        }
      }
    }
  }
}
MOTION
Frames: 23
Frame Time: 0.0416666666667
0 103.5113 0 1.422382 -0.4316064 0.1341111 2.816413 -16.70998 9.92886 -0 40.6214 -0 -5.414115 -17.93072 -3.12415 -8.010097 8.828894 -23.02296 -0 3.724186 -0 14.9734 -13.64382 29.46937 -4.678294 -3.9309 5.032231 2.889083 10.31675 -7.608501 1.299732 22.07691 6.76717 2.622331 -24.48922 10.0478 6.851718 -20.04413 11.91531 84.85907 38.49911 -17.40964 -0 0 16.1627 -6.726524 8.512832 4.588007 5.798342 -19.36724 -1.093269 -91.3816 21.1515 19.40387 0 0 -14.68912 15.60561 13.94029 -4.585043
0.4066539 103.9447 1.514258 1.161469 -0.1709033 0.2661876 3.284904 -18.28961 9.602532 -0 39.61965 -0 -5.643524 -16.52018 -2.906369 -7.769077 9.200231 -22.54518 -0 4.290195 -0 14.6517 -14.00713 28.99585 -4.448839 -3.668067 4.880298 2.900138 10.34892 -7.648343 1.315313 21.92431 6.803894 2.751992 -24.64092 10.00522 6.797976 -19.8989 11.89085 85.06065 38.54567 -17.58947 -0 0 15.82405 -6.862741 8.518405 4.59388 5.944677 -19.58591 -1.187565 -91.13545 20.81366 19.1453 0 0 -15.16066 15.91313 13.76049 -4.856769
0.7664072 104.3257 3.330799 0.648248 0.7680338 0.3557927 4.631156 -21.68539 9.743022 -0 35.73733 -0 -5.313342 -15.82143 -2.85148 -7.387673 10.1283 -21.90767 -0 5.558656 -0 14.23393 -14.99456 28.4979 -4.054555 -3.36595 4.836066 3.157098 10.11815 -7.860232 1.470645 21.55329 6.660329 2.713251 -25.134 10.08573 6.651317 -19.60465 11.69948 85.24317 38.46006 -18.12779 -0 0 15.58441 -6.121152 8.407281 4.117298 6.306255 -19.74673 -0.9654409 -91.09714 20.78938 18.78183 0 0 -16.08118 16.10098 13.42418 -4.94028
1.098728 104.6328 5.377923 0.3170553 1.344717 0.4439723 5.448886 -23.80868 9.729056 -0 33.02733 -0 -5.157961 -15.01187 -2.763662 -7.127641 10.73733 -21.44241 -0 6.36605 -0 13.70204 -15.76173 27.98166 -3.778984 -3.163334 4.785799 3.292209 9.978454 -7.971925 1.568437 21.3223 6.594041 2.715467 -25.46216 10.12301 6.504084 -19.43316 11.58626 85.45183 38.23592 -18.55493 -0 0 15.33724 -5.856269 8.399485 3.939813 6.512282 -19.90099 -0.888216 -91.09946 20.97917 18.64997 0 0 -16.84234 15.89652 13.3455 -4.56127
1.417064 104.8566 7.805009 -0.04745363 1.773976 0.5706721 6.05909 -26.21644 9.038557 -0 30.22226 -0 -5.408822 -12.63558 -2.356844 -6.785046 11.36587 -20.55548 -0 7.072574 -0 12.74182 -16.68184 26.83361 -3.403131 -2.802309 4.585967 3.294064 9.985215 -8.018411 1.597076 21.08914 6.64007 2.874781 -25.71924 10.03163 6.237526 -19.26857 11.53826 85.93665 37.77871 -19.0628 -0 0 14.71184 -6.359674 8.509749 4.153381 6.735945 -20.34573 -1.104549 -90.75398 20.89492 18.35245 0 0 -18.10938 15.69099 13.28575 -4.116671
1.741527 104.9285 10.78897 -0.3870758 1.999015 0.7831731 6.273194 -28.89313 7.366448 -0 26.85095 -0 -6.056801 -8.680826 -1.540645 -6.408036 11.99119 -19.0586 -0 7.470431 -0 11.37913 -17.76487 24.87657 -2.936617 -2.295271 4.253007 3.139195 10.1587 -7.994844 1.531927 20.87426 6.768115 3.148245 -25.82211 9.748553 5.731806 -19.13778 11.55623 86.76381 36.80896 -19.66247 -0 0 13.65389 -7.816719 8.703999 4.865496 7.023832 -21.18326 -1.676762 -89.87529 20.31355 17.65886 0 0 -20.12373 15.63025 13.16242 -3.824159
2.088181 104.7113 14.46893 -0.6138411 1.998471 1.105946 5.94153 -31.51278 4.673676 -0 21.99104 -0 -6.832497 -3.995985 -0.451794 -6.077166 12.69495 -17.00699 -0 7.375927 -0 9.489535 -19.14982 22.0782 -2.422806 -1.777299 3.876128 2.866377 10.3817 -7.911206 1.417932 20.751 6.8663 3.365524 -25.72495 9.294707 4.811267 -19.07079 11.58111 87.93439 34.7599 -20.43285 -0 0 12.24064 -10.12375 8.916284 6.068804 7.367583 -22.36438 -2.546776 -88.60591 19.66036 16.55551 0 0 -23.02181 15.25921 13.16866 -3.178319
2.471725 103.9859 18.96567 -0.5282641 1.505967 1.5547 4.63509 -33.30188 0.5549016 -0 15.08265 -0 -7.624752 0.819411 0.7892845 -5.925971 13.56802 -14.32231 -0 6.425668 -0 6.990205 -20.80725 18.3035 -1.954931 -1.41409 3.496859 2.431822 10.61164 -7.737284 1.257315 20.89215 6.835816 3.37138 -25.1787 8.611185 3.20294 -19.09033 11.57345 89.57922 30.86517 -21.39901 -0 0 10.34714 -13.52508 9.030846 7.906852 7.739603 -23.972 -3.797799 -86.81609 19.07589 14.70989 0 0 -27.05653 14.31728 13.47834 -1.975913
2.880434 102.5729 24.30697 0.06120036 0.3069046 2.123987 2.463512 -33.10173 -4.447464 -0 6.442525 -0 -8.157537 4.185089 1.584189 -6.112939 14.93566 -11.31647 -0 4.861833 -0 4.179736 -22.39333 14.1222 -1.698956 -1.551725 3.183428 1.894233 10.72622 -7.516867 1.123336 21.51311 6.523116 2.943206 -23.94606 7.788847 0.7698771 -19.10224 11.43251 91.79427 24.78719 -22.60707 -0 0 7.873626 -17.58178 8.844888 10.09699 8.001186 -25.88851 -5.285237 -84.58254 18.93406 11.81762 0 0 -31.97783 12.54113 14.25813 -0.05183628
3.247774 100.7323 30.40115 0.8349112 -1.268054 2.761568 1.005651 -30.83114 -7.755615 0 -0.3949448 0 -8.536149 4.712316 1.036032 -6.512052 17.18363 -8.875383 -0 5.165218 -0 2.196828 -22.78914 11.39606 -1.622663 -2.456864 2.901502 1.515027 10.70792 -7.472215 1.143905 22.50692 5.94587 2.100953 -22.32087 7.231435 -1.864071 -18.81599 11.10428 94.40285 18.51214 -24.0951 -0 0 4.915424 -20.50343 8.346076 11.52107 7.840479 -27.59072 -6.431166 -82.46874 19.27679 8.381028 0 0 -36.19829 10.51431 15.14379 1.936191
3.484677 99.39829 37.0668 0.7158643 -2.08299 3.278721 2.154338 -28.72884 -6.691831 0 -0.102051 0 -9.581908 3.618356 -0.6997943 -6.449713 19.40123 -7.87566 -0 11.57235 -0 2.027934 -20.54396 11.64651 -1.151893 -3.682771 2.621463 1.574642 10.89847 -7.821821 1.308323 23.06163 5.560189 1.389649 -21.56993 7.404286 -3.241392 -18.22098 10.79608 96.60788 16.30989 -25.72072 -0 0 2.399519 -20.36454 8.044583 11.11595 6.996946 -28.30462 -6.595545 -81.6594 19.33653 6.830539 0 0 -37.31372 9.783087 15.09262 2.656535
3.581494 99.24787 44.00321 -0.3998446 -2.070659 3.504602 5.110593 -27.16752 -2.746484 -0 5.971247 -0 -11.16334 2.874835 -2.223849 -5.675666 19.24872 -8.012332 -0 23.92502 -0 2.70235 -16.06733 13.3421 -0.06621473 -4.373543 2.643734 1.825718 11.58818 -8.248478 1.477971 22.81584 5.600609 1.192189 -22.07123 8.071093 -3.102053 -17.9085 10.75892 97.848 18.49726 -26.85072 -0 0 1.534967 -18.41794 8.405174 9.759519 5.72541 -27.93251 -6.14977 -82.49126 18.65497 8.586816 0 0 -35.24774 10.47136 14.04865 2.237507
3.617549 100.1274 50.9259 -1.373562 -2.427288 3.395097 7.501032 -24.27172 0.7116621 -0 11.75876 -0 -12.30275 2.074714 -3.097722 -4.762196 16.33097 -8.318516 -0 37.35799 -0 3.126999 -11.46972 14.69878 0.9652676 -4.360826 3.093713 1.851603 12.51631 -8.321041 1.688966 22.42598 5.614426 1.194295 -22.62913 8.62228 -2.608271 -18.07489 10.92624 98.30993 21.36783 -26.91229 -0 0 2.123425 -17.03952 9.350545 8.829534 4.510586 -27.04934 -5.85286 -83.84244 17.79922 11.63289 0 0 -32.12973 11.20176 13.15547 1.882321
3.647994 101.6721 57.63768 -1.738037 -3.460064 2.94532 8.559358 -19.79944 2.687755 -0 15.10676 -0 -12.73776 0.628578 -3.642925 -3.982048 11.7287 -8.412561 -0 48.35919 -0 3.235495 -7.882253 15.53346 1.552727 -3.885213 3.782312 1.58509 13.35673 -8.003184 1.951725 22.21653 5.350943 1.108634 -22.65932 8.8338 -2.329027 -18.57791 11.1592 98.16511 23.36923 -25.88279 -0 0 3.583165 -16.63079 10.5752 8.603888 3.525671 -25.95055 -5.839964 -85.00285 17.21429 14.53457 0 0 -29.20426 11.27987 12.80777 2.083447
3.675905 103.5285 63.99756 -1.592877 -4.922066 2.23878 8.596807 -14.35641 3.492639 -0 16.35345 -0 -12.59954 -1.439614 -4.02084 -3.285863 6.26072 -8.295175 -0 55.38895 -0 3.176519 -5.525236 16.08322 1.689132 -3.126367 4.522633 1.097993 13.9545 -7.389765 2.215735 22.15976 4.853425 0.8966502 -22.18226 8.731519 -2.269704 -19.3195 11.39004 97.47128 24.58366 -23.90447 -0 0 5.658014 -16.88338 11.8582 8.96156 2.798513 -24.69057 -5.987941 -85.87977 16.9442 17.05841 0 0 -26.69846 10.67628 12.87599 2.79068
3.696185 105.3617 69.93832 -1.149483 -6.52125 1.402471 8.053011 -8.540723 3.550079 -0 16.17656 -0 -12.08264 -3.92236 -4.259067 -2.5712 0.4856186 -8.034446 -0 57.81466 -0 3.053056 -4.331131 16.56996 1.47347 -2.219771 5.177017 0.4846466 14.24215 -6.582956 2.437436 22.19089 4.242033 0.6124901 -21.33943 8.413167 -2.314787 -20.21597 11.58157 96.2796 25.3298 -21.15408 -0 0 8.165649 -17.55139 13.09108 9.775302 2.3422 -23.30801 -6.157797 -86.5624 16.90341 19.23184 0 0 -24.48701 9.58286 13.21451 3.791506
3.726578 106.8865 75.4771 -0.6145181 -7.959304 0.5511338 7.274327 -2.849965 3.180843 -0 15.16133 -0 -11.37504 -6.598321 -4.327348 -1.765391 -5.175407 -7.700065 -0 55.54456 -0 2.948689 -4.088826 17.14686 1.037836 -1.302524 5.662078 -0.1498484 14.21103 -5.693466 2.5772 22.2447 3.65883 0.3297794 -20.3185 7.998544 -2.338809 -21.20588 11.71511 94.65932 25.92571 -17.85526 -0 0 10.92682 -18.4802 14.23383 10.95065 2.149721 -21.87288 -6.228099 -87.17148 16.95746 21.14877 0 0 -22.40003 8.26474 13.69716 4.847436
3.806228 107.8924 80.70382 -0.1593829 -8.993812 -0.2462807 6.488207 2.336969 2.570557 -0 13.74369 -0 -10.64836 -9.282226 -4.1997 -0.8421491 -10.33807 -7.364698 -0 48.99123 -0 2.916152 -4.499623 17.90471 0.5217617 -0.5178667 5.922583 -0.7042977 13.89084 -4.829007 2.614569 22.29365 3.231968 0.1133084 -19.29264 7.60572 -2.248032 -22.21301 11.7788 92.68764 26.56426 -14.26 -0 0 13.71131 -19.6158 15.29042 12.41819 2.200528 -20.4876 -6.114153 -87.82085 16.99128 22.85087 0 0 -20.25198 7.009437 14.28852 5.721949
3.977877 108.2692 85.75087 0.08587627 -9.477682 -0.9747196 5.826178 6.798082 1.815062 -0 12.24477 -0 -10.04653 -11.83957 -3.87437 0.1678719 -14.67041 -7.121214 -0 39.14529 -0 2.952096 -5.199445 18.86723 0.05792507 0.002797583 5.933876 -1.099787 13.33882 -4.074807 2.556375 22.35175 3.056176 0.01189835 -18.39454 7.339181 -1.989586 -23.13753 11.76392 90.4547 27.30066 -10.63386 -0 0 16.25764 -20.97215 16.28323 14.11157 2.459651 -19.25688 -5.775276 -88.61818 16.94294 24.33153 0 0 -17.83735 6.073314 15.03868 6.223303
4.269338 108.0158 90.75875 0.04972644 -9.393393 -1.659623 5.335166 10.49851 0.9640264 -0 10.90365 -0 -9.663034 -14.15856 -3.368547 1.169425 -17.95124 -7.082026 -0 27.53703 -0 2.979766 -5.817329 19.98063 -0.2520217 0.1702327 5.717464 -1.301409 12.63144 -3.471883 2.435777 22.46069 3.176987 0.06004726 -17.69512 7.271592 -1.556535 -23.87036 11.66516 88.08236 28.06626 -7.238106 -0 0 18.33141 -22.5856 17.21761 15.94394 2.88142 -18.25625 -5.225671 -89.65718 16.80591 25.57212 0 0 -14.96329 5.625092 16.02563 6.246368
4.684881 107.228 95.85262 -0.2558635 -8.860303 -2.342395 4.981419 13.56912 0.0527498 -0 9.923752 -0 -9.524305 -16.08453 -2.700842 2.014664 -20.12178 -7.352561 -0 15.99975 -0 2.859531 -6.070827 21.12213 -0.3666085 -0.02823962 5.34942 -1.333016 11.85211 -3.003028 2.300487 22.66506 3.585061 0.2859786 -17.19039 7.422632 -0.9800126 -24.31552 11.48346 85.72858 28.72472 -4.298403 -0 0 19.78924 -24.45527 18.04785 17.78352 3.417891 -17.50884 -4.539512 -90.99243 16.60395 26.57508 0 0 -11.50952 5.711831 17.27289 5.784135
5.209197 106.0734 101.136 -0.7264777 -8.098215 -3.058392 4.665337 16.20365 -0.878168 -0 9.537379 -0 -9.603737 -17.34225 -1.875959 2.540415 -21.28106 -7.985548 -0 6.287299 -0 2.445661 -5.851921 22.14016 -0.3202312 -0.5094525 4.944529 -1.272963 11.08191 -2.601314 2.19297 22.9849 4.227261 0.7208203 -16.81211 7.746524 -0.3055079 -24.40884 11.23276 83.56466 29.16858 -1.971146 -0 0 20.60536 -26.49047 18.66801 19.43845 4.026196 -16.98845 -3.841925 -92.5979 16.3458 27.36696 0 0 -7.500652 6.27509 18.68403 4.892479
5.817964 104.7623 106.6919 -1.194321 -7.361095 -3.822012 4.255242 18.5131 -1.775137 -0 10.05382 -0 -9.870422 -17.52273 -0.8882957 2.618999 -21.61607 -8.945156 0 -0.3097939 0 1.671209 -5.246998 22.91056 -0.2106812 -1.107631 4.613701 -1.228081 10.39811 -2.18382 2.13293 23.40026 5.029358 1.398207 -16.46371 8.14065 0.4346487 -24.12623 10.94713 81.73393 29.40969 -0.321719 -0 0 20.84105 -28.50448 18.94681 20.67451 4.669769 -16.65097 -3.282931 -94.32972 15.9907 27.96146 0 0 -3.154086 7.214369 20.04028 3.626914
